<svg width="367" height="349" viewBox="0 0 367 349" fill="none" xmlns="http://www.w3.org/2000/svg">
<path d="M61.3999 167.3C61.3999 100 115.9 45.5 183.2 45.5C250.5 45.5 305 100 305 167.3H61.3999Z" fill="#D6E4F0"/>
<path d="M303.4 244.1V287.7C303.4 318.7 278.2 343.9 247.2 343.9H119.3C88.3001 343.9 63.1001 318.7 63.1001 287.7V244.1H303.4Z" fill="#D6E4F0"/>
<path d="M258.6 309.9C267.381 309.9 274.5 302.781 274.5 294C274.5 285.219 267.381 278.1 258.6 278.1C249.819 278.1 242.7 285.219 242.7 294C242.7 302.781 249.819 309.9 258.6 309.9Z" fill="white"/>
<path d="M345.8 148.1C357.2 148.1 366.5 138.8 366.5 127.4C366.5 116 357.2 106.7 345.8 106.7C334.4 106.7 325.1 116 325.1 127.4C325.1 131.5 326.3 135.3 328.3 138.5L309.5 157.3C304.5 93.7 252.5 43.2 188.3 40.6V20.4H178.3V40.6C114.1 43 61.8 93.6 56.8 157.3L38 138.5C40 135.3 41.2 131.5 41.2 127.4C41.2 116 31.9 106.7 20.5 106.7C9.3 106.8 0 116.1 0 127.5C0 138.9 9.3 148.2 20.7 148.2C24.4 148.2 27.9 147.2 30.9 145.5L52.3 167C27.2 177.6 13.6 191.1 13.6 205.8C13.6 221.6 29.3 236 58.1 246.9V287.8C58.1 321.6 85.6 349 119.3 349H247.2C281 349 308.4 321.5 308.4 287.8V246.9C337.2 236 352.9 221.6 352.9 205.8C352.9 191.1 339.3 177.6 314.2 167L335.7 145.5C338.7 147.1 342.2 148.1 345.8 148.1ZM183.3 50.5C183.4 50.5 183.4 50.5 183.3 50.5C198.5 50.6 215.1 89.3 218.4 146.9C207 146.1 195.2 145.7 183.2 145.7C171.3 145.7 159.6 146.1 148.3 146.9C151.6 89.3 168.2 50.6 183.3 50.5ZM299.9 161.7C279.6 155 255.1 150.3 228.4 147.8C227 122.1 223 98.4 216.8 79.6C212.6 66.9 207.9 58.2 203.3 52.2C256.4 61.5 297.3 106.7 299.9 161.7ZM163.4 52.2C158.8 58.2 154.1 66.9 149.9 79.6C143.6 98.4 139.6 122.1 138.3 147.8C111.6 150.3 87 155 66.6 161.7C69.2 106.6 110.2 61.3 163.4 52.2ZM247.2 338.9H119.3C91.1 338.9 68.1 315.9 68.1 287.7V250.3C99.3 260.3 140.1 265.7 183.3 265.7C226.5 265.7 267.2 260.2 298.5 250.3V287.7C298.4 315.9 275.4 338.9 247.2 338.9Z" fill="#1E56A0"/>
<path d="M214.6 282.3C211.8 282.3 209.6 284.5 209.6 287.3C209.6 301.8 197.8 313.6 183.3 313.6C168.8 313.6 157 301.8 157 287.3C157 284.5 154.8 282.3 152 282.3C149.2 282.3 147 284.5 147 287.3C147 307.3 163.3 323.6 183.3 323.6C203.3 323.6 219.6 307.3 219.6 287.3C219.6 284.6 217.3 282.3 214.6 282.3Z" fill="#1E56A0"/>
<path d="M122.8 244.4C101.5 244.4 84.2 227.1 84.2 205.8C84.2 184.5 101.5 167.2 122.8 167.2C144.1 167.2 161.4 184.5 161.4 205.8C161.4 227.1 144.1 244.4 122.8 244.4ZM122.8 174.5C105.6 174.5 91.5 188.5 91.5 205.8C91.5 223.1 105.5 237.1 122.8 237.1C140.1 237.1 154.1 223.1 154.1 205.8C154.1 188.5 140 174.5 122.8 174.5Z" fill="#D6E4F0"/>
<path d="M122.8 181.8C109.6 181.8 98.8 192.5 98.8 205.8C98.8 219 109.5 229.8 122.8 229.8C136.1 229.8 146.8 219.1 146.8 205.8C146.8 192.5 136 181.8 122.8 181.8ZM118.1 216.7C109.4 216.7 102.4 209.7 102.4 201C102.4 199.2 102.7 197.6 103.2 196C103.2 196.1 103.2 196.3 103.2 196.4C103.2 202.1 107.8 206.7 113.5 206.7C119.2 206.7 123.8 202.1 123.8 196.4C123.8 190.7 119.2 186.1 113.5 186.1C113.4 186.1 113.2 186.1 113.1 186.1C114.7 185.6 116.4 185.3 118.1 185.3C126.8 185.3 133.8 192.3 133.8 201C133.8 209.7 126.7 216.7 118.1 216.7Z" fill="white"/>
<path d="M243.7 181.8C230.5 181.8 219.7 192.5 219.7 205.8C219.7 219 230.4 229.8 243.7 229.8C256.9 229.8 267.7 219.1 267.7 205.8C267.7 192.5 256.9 181.8 243.7 181.8ZM239 216.7C230.3 216.7 223.3 209.7 223.3 201C223.3 199.2 223.6 197.6 224.1 196C224.1 196.1 224.1 196.3 224.1 196.4C224.1 202.1 228.7 206.7 234.4 206.7C240.1 206.7 244.7 202.1 244.7 196.4C244.7 190.7 240.1 186.1 234.4 186.1C234.3 186.1 234.1 186.1 234 186.1C235.6 185.6 237.3 185.3 239 185.3C247.7 185.3 254.7 192.3 254.7 201C254.7 209.7 247.6 216.7 239 216.7Z" fill="white"/>
<path d="M243.7 244.4C222.4 244.4 205.1 227.1 205.1 205.8C205.1 184.5 222.4 167.2 243.7 167.2C265 167.2 282.3 184.5 282.3 205.8C282.3 227.1 265 244.4 243.7 244.4ZM243.7 174.5C226.5 174.5 212.4 188.5 212.4 205.8C212.4 223.1 226.4 237.1 243.7 237.1C261 237.1 275 223.1 275 205.8C275 188.5 260.9 174.5 243.7 174.5Z" fill="#D6E4F0"/>
<path d="M183.4 31.8C192.181 31.8 199.3 24.6813 199.3 15.9C199.3 7.11867 192.181 0 183.4 0C174.619 0 167.5 7.11867 167.5 15.9C167.5 24.6813 174.619 31.8 183.4 31.8Z" fill="#EB4D55"/>
<path d="M107.9 309.9C116.681 309.9 123.8 302.781 123.8 294C123.8 285.219 116.681 278.1 107.9 278.1C99.1187 278.1 92 285.219 92 294C92 302.781 99.1187 309.9 107.9 309.9Z" fill="white"/>
</svg>
